<svg width="500" height="500" viewBox="0 0 500 500" fill="none" xmlns="http://www.w3.org/2000/svg">
<path d="M121.57 210.046C121.758 210.115 121.893 210.319 121.893 210.524V231.501C121.893 231.706 121.784 231.891 121.596 231.982L81.9595 251L121.596 270.019C121.784 270.11 121.893 270.292 121.893 270.496V291.474C121.893 291.679 121.759 291.863 121.57 291.954C121.516 292 121.461 292 121.381 292C121.246 292 121 291.837 121 291.837L80.9609 251.955L40.9185 291.837C40.8107 291.951 40.6755 292 40.5408 292C40.4868 292 40.4031 291.977 40.3491 291.954C40.1608 291.885 40.0287 291.678 40.0286 291.474V270.496C40.0288 270.292 40.1352 270.11 40.3233 270.019L79.9336 251L40.2976 231.982C40.1086 231.891 40 231.706 40 231.501V210.524C40.0003 210.32 40.1611 210.115 40.3491 210.046C40.5381 209.955 40.7565 210.001 40.9185 210.161L80.9609 250.042L121 210.161C121.135 210.001 121.381 209.955 121.57 210.046Z" fill="white"/>
<path fill-rule="evenodd" clip-rule="evenodd" d="M257.48 236.246C259.522 236.246 261.563 236.49 263.604 236.975C265.645 237.435 267.52 238.228 269.229 239.352C270.939 240.476 272.306 241.982 273.327 243.873C274.348 245.764 274.861 248.129 274.861 250.966V279.639H265.172V273.734H264.869C264.256 274.909 263.387 276.021 262.265 277.068C261.168 278.09 259.788 278.923 258.13 279.562C256.497 280.201 254.555 280.52 252.31 280.52C249.579 280.52 247.128 280.033 244.959 279.062C242.79 278.065 241.082 276.608 239.831 274.692C238.581 272.775 237.954 270.413 237.954 267.602C237.954 265.201 238.401 263.206 239.293 261.622C240.187 260.038 241.402 258.773 242.933 257.827C244.489 256.882 246.237 256.167 248.175 255.682C250.115 255.171 252.12 254.811 254.187 254.607C256.713 254.326 258.757 254.085 260.313 253.88C261.869 253.676 262.992 253.342 263.681 252.882C264.395 252.422 264.751 251.705 264.751 250.734V250.543C264.751 248.474 264.139 246.865 262.914 245.715C261.689 244.565 259.902 243.991 257.555 243.991C255.08 243.991 253.115 244.525 251.66 245.598C250.231 246.671 249.261 247.937 248.75 249.393L239.371 248.052C240.111 245.446 241.336 243.274 243.045 241.537C244.754 239.774 246.836 238.456 249.285 237.587C251.761 236.693 254.495 236.246 257.48 236.246ZM264.829 259.245C264.497 259.501 263.96 259.742 263.22 259.972C262.48 260.176 261.638 260.368 260.694 260.547C259.75 260.725 258.819 260.879 257.901 261.007C257.008 261.135 256.227 261.24 255.563 261.316C254.058 261.52 252.705 261.863 251.506 262.348C250.332 262.808 249.402 263.45 248.713 264.267C248.024 265.085 247.678 266.145 247.677 267.448C247.677 269.312 248.354 270.718 249.706 271.663C251.059 272.609 252.784 273.085 254.877 273.085C256.918 273.084 258.679 272.687 260.159 271.895C261.639 271.077 262.787 270.003 263.604 268.675C264.42 267.321 264.828 265.851 264.829 264.267V259.245Z" fill="white"/>
<path fill-rule="evenodd" clip-rule="evenodd" d="M326.16 236.246C330.345 236.246 333.968 237.166 337.03 239.006C340.092 240.846 342.467 243.44 344.152 246.788C345.834 250.11 346.679 253.981 346.679 258.402C346.679 262.797 345.834 266.657 344.152 269.979C342.467 273.3 340.092 275.881 337.03 277.72C333.968 279.56 330.345 280.48 326.16 280.48C321.974 280.48 318.349 279.56 315.286 277.72C312.224 275.881 309.852 273.3 308.167 269.979C306.508 266.657 305.678 262.797 305.678 258.402C305.678 253.981 306.508 250.11 308.167 246.788C309.852 243.44 312.224 240.846 315.286 239.006C318.349 237.166 321.974 236.246 326.16 236.246ZM326.16 244.371C323.889 244.371 321.988 244.999 320.457 246.25C318.926 247.477 317.775 249.151 317.009 251.272C316.269 253.393 315.899 255.77 315.899 258.402C315.899 260.982 316.269 263.334 317.009 265.454C317.775 267.575 318.926 269.261 320.457 270.513C321.988 271.74 323.889 272.355 326.16 272.355C328.482 272.355 330.397 271.74 331.902 270.513C333.406 269.261 334.532 267.575 335.27 265.454C336.038 263.334 336.418 260.982 336.418 258.402C336.418 255.77 336.038 253.393 335.27 251.272C334.532 249.151 333.407 247.476 331.902 246.25C330.397 244.998 328.482 244.371 326.16 244.371Z" fill="white"/>
<path d="M397.211 236.246C400.709 236.246 403.798 236.885 406.476 238.162C409.157 239.44 411.286 241.242 412.869 243.567C414.477 245.867 415.395 248.563 415.627 251.655H405.978C405.723 250.276 405.226 249.036 404.485 247.937C403.746 246.839 402.776 245.968 401.575 245.329C400.403 244.69 398.998 244.371 397.363 244.371C395.298 244.371 393.484 244.934 391.929 246.058C390.399 247.157 389.197 248.742 388.329 250.812C387.462 252.881 387.03 255.36 387.03 258.247C387.03 261.16 387.448 263.679 388.292 265.8C389.133 267.895 390.336 269.518 391.892 270.668C393.447 271.791 395.271 272.355 397.363 272.355C399.583 272.355 401.462 271.702 402.991 270.399C404.547 269.096 405.545 267.296 405.978 264.997H415.627C415.395 268.037 414.501 270.72 412.946 273.044C411.39 275.37 409.283 277.195 406.628 278.524C403.976 279.827 400.863 280.48 397.291 280.48C393.028 280.48 389.362 279.549 386.301 277.683C383.239 275.792 380.891 273.183 379.259 269.861C377.624 266.539 376.806 262.72 376.806 258.402C376.806 254.032 377.635 250.186 379.293 246.865C380.951 243.543 383.314 240.948 386.375 239.083C389.44 237.192 393.053 236.246 397.211 236.246Z" fill="white"/>
<path fill-rule="evenodd" clip-rule="evenodd" d="M439.359 236.246C441.987 236.246 444.478 236.667 446.825 237.51C449.198 238.353 451.292 239.657 453.106 241.42C454.943 243.183 456.383 245.433 457.429 248.166C458.475 250.874 459 254.108 459 257.864V261.007H429.23C429.312 263.288 429.752 265.27 430.555 266.95C431.475 268.789 432.749 270.195 434.383 271.166C436.042 272.136 437.972 272.624 440.166 272.624C441.593 272.624 442.898 272.418 444.069 272.009C445.267 271.6 446.29 270.988 447.131 270.17C448.001 269.327 448.663 268.291 449.122 267.064L458.539 268.177C457.927 270.655 456.789 272.827 455.131 274.692C453.499 276.532 451.392 277.965 448.813 278.987C446.262 279.984 443.325 280.48 440.009 280.48C435.723 280.48 432.021 279.586 428.907 277.798C425.796 275.983 423.395 273.429 421.71 270.133C420.052 266.836 419.224 262.951 419.224 258.479C419.224 254.058 420.052 250.187 421.71 246.865C423.369 243.517 425.706 240.908 428.718 239.043C431.73 237.178 435.278 236.246 439.359 236.246ZM439.437 244.102C437.268 244.102 435.418 244.616 433.886 245.638C432.354 246.66 431.194 248.04 430.403 249.776C429.779 251.13 429.402 252.614 429.27 254.223H449.18C449.03 252.616 448.694 251.171 448.164 249.891C447.426 248.077 446.326 246.66 444.873 245.638C443.417 244.616 441.607 244.102 439.437 244.102Z" fill="white"/>
<path d="M215.79 252.653L224.557 236.784H235.239L222.374 258.247L235.468 279.639H224.863L215.79 264.227L206.868 279.639H196.189L209.166 258.247L196.495 236.784H207.177L215.79 252.653Z" fill="white"/>
<path d="M373.018 236.209C373.554 236.209 374.167 236.232 374.855 236.283C375.569 236.334 376.155 236.398 376.615 236.475V245.752C376.181 245.599 375.505 245.471 374.589 245.369C373.669 245.267 372.786 245.215 371.945 245.215C370.081 245.215 368.422 245.61 366.969 246.402C365.513 247.194 364.365 248.282 363.524 249.662C362.706 251.042 362.299 252.653 362.299 254.492V279.639H352.23V236.784H361.99V243.991H362.451C363.215 241.487 364.555 239.568 366.468 238.239C368.384 236.885 370.568 236.209 373.018 236.209Z" fill="white"/>
<path d="M191.786 231.187H164.989V246.519H189.797V255.067H164.989V270.974H191.94V279.637H154.653V222.521H191.786V231.187Z" fill="white"/>
<path d="M298.479 221.48C300.239 221.48 301.799 221.62 303.151 221.901C304.529 222.182 305.538 222.437 306.176 222.667L304.107 230.486C303.699 230.333 303.173 230.193 302.536 230.066C301.898 229.913 301.172 229.837 300.356 229.837C298.493 229.837 297.152 230.296 296.335 231.215C295.545 232.135 295.148 233.439 295.148 235.125V236.781H304.07V244.603H295.148V279.637H285.119V244.603H278.841V236.781H285.119V234.396C285.119 231.509 285.719 229.105 286.918 227.189C288.118 225.273 289.727 223.844 291.743 222.899C293.784 221.953 296.029 221.48 298.479 221.48Z" fill="white"/>
<path d="M67.189 250.474C67.4318 250.542 67.5951 250.75 67.5953 251C67.5947 251.25 67.4314 251.478 67.189 251.524L40.6209 257.012H40.5122C40.4047 257.011 40.2696 256.968 40.1889 256.9C40.0809 256.809 40.0001 256.648 40 256.488V245.509C40.0004 245.35 40.0813 245.191 40.1889 245.1C40.2968 244.986 40.4591 244.963 40.6209 244.986L67.189 250.474Z" fill="white"/>
<path d="M121.272 244.986C121.434 244.963 121.596 245.009 121.704 245.1C121.812 245.214 121.893 245.35 121.893 245.509V256.488C121.893 256.648 121.812 256.806 121.704 256.897C121.624 256.966 121.489 257.012 121.381 257.012H121.272L94.7042 251.524C94.461 251.455 94.3007 251.248 94.3007 250.997C94.3013 250.747 94.4615 250.519 94.7042 250.474L121.272 244.986Z" fill="white"/>
</svg>
